<svg width="20" height="20" viewBox="0 0 20 20" fill="none" xmlns="http://www.w3.org/2000/svg">
<g clip-path="url(#clip0_1_1700)">
<path d="M16.1834 3.925C15.8584 3.6 15.3334 3.6 15.0084 3.925L7.94169 11L4.99169 8.05C4.66669 7.725 4.14169 7.725 3.81669 8.05C3.49169 8.375 3.49169 8.9 3.81669 9.225L7.35002 12.7583C7.67502 13.0833 8.20002 13.0833 8.52502 12.7583L16.1834 5.1C16.5167 4.775 16.5167 4.25 16.1834 3.925Z" fill="black"/>
<path d="M5.00002 16.6667H15C15.4584 16.6667 15.8334 16.2917 15.8334 15.8333C15.8334 15.375 15.4584 15 15 15H5.00002C4.54169 15 4.16669 15.375 4.16669 15.8333C4.16669 16.2917 4.54169 16.6667 5.00002 16.6667Z" fill="black"/>
</g>
<defs>
<clipPath id="clip0_1_1700">
<rect width="20" height="20" fill="white"/>
</clipPath>
</defs>
</svg>
