<svg width="156" height="150" viewBox="0 0 156 150" fill="none" xmlns="http://www.w3.org/2000/svg">
<g clip-path="url(#clip0_1_1710)">
<path d="M153.74 37.2877C150.652 34.2002 145.665 34.2002 142.577 37.2877L75.444 104.5L47.419 76.4752C44.3315 73.3877 39.344 73.3877 36.2565 76.4752C33.169 79.5627 33.169 84.5502 36.2565 87.6377L69.8231 121.204C72.9106 124.292 77.8981 124.292 80.9856 121.204L153.74 48.4502C156.906 45.3627 156.906 40.3752 153.74 37.2877Z" fill="#15B569"/>
<path d="M47.4983 158.333H142.498C146.853 158.333 150.415 154.771 150.415 150.417C150.415 146.063 146.853 142.5 142.498 142.5H47.4983C43.1442 142.5 39.5817 146.063 39.5817 150.417C39.5817 154.771 43.1442 158.333 47.4983 158.333Z" fill="#15B569"/>
</g>
<defs>
<clipPath id="clip0_1_1710">
<rect width="190" height="190" fill="white"/>
</clipPath>
</defs>
</svg>
