<svg width="40" height="40" viewBox="0 0 40 40" fill="none" xmlns="http://www.w3.org/2000/svg">
<path d="M20 0L21.6999 12.5522L28.6777 1.98062L24.763 14.0273L35.6366 7.5302L26.8828 16.6854L39.4986 15.5496L27.6393 20L39.4986 24.4504L26.8828 23.3146L35.6366 32.4698L24.763 25.9727L28.6777 38.0194L21.6999 27.4478L20 40L18.3001 27.4478L11.3223 38.0194L15.237 25.9727L4.36337 32.4698L13.1172 23.3146L0.501442 24.4504L12.3607 20L0.501442 15.5496L13.1172 16.6854L4.36337 7.5302L15.237 14.0273L11.3223 1.98062L18.3001 12.5522L20 0Z" fill="#EB7B26"/>
</svg>
